<?xml version="1.0" encoding="utf-8"?>
<!-- Generator: Adobe Illustrator 24.1.1, SVG Export Plug-In . SVG Version: 6.00 Build 0)  -->
<svg version="1.1" id="Layer_1" xmlns="http://www.w3.org/2000/svg" xmlns:xlink="http://www.w3.org/1999/xlink" x="0px" y="0px"
	 viewBox="0 0 1288.8 344.1" style="enable-background:new 0 0 1288.8 344.1;" xml:space="preserve">
<style type="text/css">
	.st0{fill:#F4F4F4;stroke:#F4F4F4;stroke-width:2;stroke-miterlimit:10;}
	.st1{fill:#4E5CA6;}
</style>
<path class="st0" d="M97.9,7.5h150.5c49.2,0,89.1,39.9,89.1,89.1v150.5c0,49.2-39.9,89.1-89.1,89.1H97.9
	c-49.2,0-89.1-39.9-89.1-89.1V96.6C8.8,47.4,48.7,7.5,97.9,7.5z"/>
<g>
	<path class="st1" d="M187,189l-13.3,29.9c-2.3,5-4.2,8.4-5.6,10.2c-1.4,1.7-3,2.6-4.7,2.6c-1.6,0-3.1-0.7-4.3-2.1
		c-0.8-0.9-2.7-4.1-5.6-9.8c-2.9-5.6-5.4-10.6-7.3-15l-14.7-33c-2-4.6-4.1-6.9-6.3-6.9c-2.4,0-3.7,2-3.9,5.9
		c-0.5,8.7-0.8,16.8-0.8,24.2c0,7.7,0.4,12.9,1.1,15.7c0.5,1.6,1.2,2.8,2.1,3.6c0.9,0.7,3.2,2.1,6.9,4c2.4,1.3,3.7,3.4,3.7,6.6
		c0,8.3-10.6,12.5-31.9,12.5c-17.9,0-26.9-4-26.9-12.1c0-2.1,0.5-3.6,1.4-4.5c0.9-0.9,3.3-2.3,7.2-4.2c2.4-1.1,4.1-2.6,4.9-4.6
		c0.9-1.9,1.6-5.7,2.2-11.2c0.7-5.9,1.3-15.7,1.9-29.2c0.6-13.5,0.9-25.1,0.9-34.7c0-12.1-0.9-20.3-2.8-24.6
		c-0.7-1.5-1.4-2.6-2.3-3.3c-0.9-0.7-2.5-1.7-4.8-2.9c-5.3-2.5-7.9-5.8-7.9-9.8c0-2.6,1-5,2.9-7.1c2-2.1,4.6-3.7,7.8-4.6
		c3.3-1,7.6-1.8,13.1-2.5c5.4-0.7,10.1-1.1,13.8-1.1c9.5,0,16.2,0.8,20.1,2.3c1.9,0.7,3.4,1.7,4.6,3c1.1,1.3,2.7,3.9,4.8,7.8
		l23.1,42.6c2.5,4.7,4.3,7.5,5.2,8.6c1,1,2.3,1.6,4,1.6c1.5,0,2.8-0.6,3.9-1.7c1.1-1.1,2.5-3.2,4.1-6.2l15.7-30.6
		c1.9-3.9,3.2-6.5,3.8-7.7c3.6-7.4,7.2-12.3,10.8-14.8c4.5-3.2,12.7-4.8,24.7-4.8c21,0,31.5,4.8,31.5,14.3c0,2.2-0.4,3.9-1.2,5.2
		c-0.8,1.3-2.5,2.9-5,4.7c-3.4,2.6-5.6,6.3-6.4,11.2c-1.7,10.2-2.6,22.7-2.6,37.4c0,18.9,0.9,35.5,2.7,49.7c0.4,3.5,1.1,5.9,2.1,7.1
		c0.9,1.3,3.3,3.2,7.2,5.7c2.7,1.8,4,4.2,4,7.1c0,5.2-3.4,8.9-10.3,11c-3.6,1.2-7.3,2-11.2,2.3c-3.9,0.4-10,0.6-18.1,0.6
		c-12.5,0-21.9-0.9-28-2.7c-6.8-2-10.2-5.4-10.2-10.2c0-1.8,0.4-3.2,1.3-4.4c0.9-1.1,3.2-3.2,6.9-6.3c1.9-1.6,3.2-4.6,3.9-9
		c0.7-4.4,1.1-12,1.1-22.7c0-5.9-0.3-9.8-0.8-11.7c-0.6-1.9-1.7-2.8-3.5-2.8c-2.1,0-4.1,1.4-6,4.3C193.8,174.7,190.9,180.4,187,189z
		"/>
</g>
</svg>
